<?xml version="1.0" standalone="no"?><!DOCTYPE svg PUBLIC "-//W3C//DTD SVG 1.1//EN" "http://www.w3.org/Graphics/SVG/1.1/DTD/svg11.dtd"><svg xmlns:xlink="http://www.w3.org/1999/xlink" version="1.1" style="font-family:proximanova, 'helvetica neue', helvetica, arial, sans-serif;font-size:12px;" xmlns="http://www.w3.org/2000/svg" width="800" height="400"><desc>Created with Highstock 2.0.3</desc><defs><clipPath id="highcharts-12"><rect x="0" y="0" width="731" height="321"></rect></clipPath><clipPath id="highcharts-13"><rect x="0" y="0" width="731" height="321"></rect></clipPath></defs><rect x="0" y="0" width="800" height="400" strokeWidth="0" fill="#fff" class=" highcharts-background"></rect><text x="59" y="25" style="color:#8a8a8a;font-size:13px;font-family:arial;margin-top:-10px;fill:#8a8a8a;"></text><g class="highcharts-input-group" transform="translate(483,10)"><g style="margin-top:-10px;fill:#8a8a8a;" transform="translate(0,0)"><text x="2"  style="font-size:13px;font-family:arial;color:#8a8a8a;fill:#8a8a8a;" y="16"></text></g><g style="text-align:center;" transform="translate(9,0)"><rect x="0.5" y="0.5" width="94" height="21" strokeWidth="1" fill="none" stroke="#d8d8d8" stroke-width="1"></rect><text x="14.3125"  style="font-size:12px;font-family:arial;color:#8a8a8a;fill:#8a8a8a;" y="15"><tspan>Jul 18, 2010</tspan></text></g><g style="margin-top:-10px;fill:#8a8a8a;" transform="translate(113,0)"><text x="2"  style="font-size:13px;font-family:arial;color:#8a8a8a;fill:#8a8a8a;" y="16">to</text></g><g style="text-align:center;" transform="translate(133,0)"><rect x="0.5" y="0.5" width="94" height="21" strokeWidth="1" fill="none" stroke="#d8d8d8" stroke-width="1"></rect><text x="11.296875"  style="font-size:12px;font-family:arial;color:#8a8a8a;fill:#8a8a8a;" y="15"><tspan>Aug 23, 2017</tspan></text></g></g><image preserveAspectRatio="none" x="640" y="271" width="150" height="29" xmlns:xlink="http://www.w3.org/1999/xlink" xlink:href="https://www.coindesk.com/wp-content/themes/coindesk2/images/bpi-chart-branding.png"></image><g class="highcharts-grid" ></g><g class="highcharts-grid" ><path fill="none" d="M 59 44.5 L 790 44.5" stroke="#e8e8e8" stroke-width="1"  opacity="1"></path><path fill="none" d="M 59 99.5 L 790 99.5" stroke="#e8e8e8" stroke-width="1"  opacity="1"></path><path fill="none" d="M 59 152.5 L 790 152.5" stroke="#e8e8e8" stroke-width="1"  opacity="1"></path><path fill="none" d="M 59 206.5 L 790 206.5" stroke="#e8e8e8" stroke-width="1"  opacity="1"></path><path fill="none" d="M 59 259.5 L 790 259.5" stroke="#e8e8e8" stroke-width="1"  opacity="1"></path><path fill="none" d="M 59 313.5 L 790 313.5" stroke="#e8e8e8" stroke-width="1"  opacity="1"></path><path fill="none" d="M 59 366.5 L 790 366.5" stroke="#e8e8e8" stroke-width="1"  opacity="1"></path></g><g class="highcharts-axis" ><path fill="none" d="M 414.5 366 L 414.5 376" stroke="#C0D0E0" stroke-width="1" opacity="1"></path><path fill="none" d="M 620.5 366 L 620.5 376" stroke="#C0D0E0" stroke-width="1" opacity="1"></path><path fill="none" d="M 208.5 366 L 208.5 376" stroke="#C0D0E0" stroke-width="1" opacity="1"></path><path fill="none" d="M 59 366.5 L 790 366.5" stroke="#fff" stroke-width="1"  visibility="visible"></path></g><g class="highcharts-axis" ></g><g class="highcharts-series-group" ><g class="highcharts-series" visibility="visible"  transform="translate(59,45) scale(1 1)" clip-path="url(#highcharts-13)"><path fill="none" d="M 0.28189525174785285 267.49663714285714 L 2.255162013982823 267.49663714285714 L 4.228428776217793 267.49679000000003 L 6.201695538452763 267.4963314285714 L 8.174962300687733 267.496255 L 10.148229062922702 267.49679000000003 L 12.121495825157673 267.49679000000003 L 14.094762587392642 267.49679000000003 L 16.06802934962761 267.49679000000003 L 18.041296111862582 267.49679000000003 L 20.014562874097553 267.49679000000003 L 21.987829636332524 267.4959492857143 L 23.961096398567495 267.4948028571429 L 25.934363160802462 267.4944207142857 L 27.907629923037433 267.4906757142857 L 29.880896685272404 267.4862428571429 L 31.854163447507375 267.48670142857145 L 33.827430209742346 267.48601357142854 L 35.80069697197732 267.48502 L 37.77396373421228 267.48807714285715 L 39.74723049644725 267.4883828571428 L 41.72049725868222 267.48708357142857 L 43.69376402091719 267.48647214285717 L 45.667030783152164 267.48440857142856 L 47.640297545387135 267.4835678571429 L 49.613564307622106 267.4810457142857 L 51.58683106985708 267.47967 L 53.56009783209204 267.4767657142857 L 55.53336459432701 267.45979857142856 L 57.50663135656198 267.44588857142855 L 59.47989811879695 267.4472642857143 L 61.453164881031924 267.4513914285714 L 63.426431643266895 267.451315 L 65.39969840550187 267.452385 L 67.37296516773684 267.4559007142857 L 69.34623192997181 267.4552892857143 L 71.31949869220678 267.45804071428574 L 73.29276545444175 267.4610214285714 L 75.26603221667672 267.44879285714285 L 77.23929897891169 267.427775 L 79.21256574114665 267.371065 L 81.18583250338162 267.31420214285714 L 83.15909926561659 267.16524285714286 L 85.13236602785156 267.13849285714286 L 87.10563279008653 267.06435714285715 L 89.0788995523215 266.83056214285716 L 91.05216631455647 266.2913585714286 L 93.02543307679144 266.5393692857143 L 94.99869983902641 266.57131642857144 L 96.97196660126139 266.6372742857143 L 98.94523336349636 266.7363257142857 L 100.91850012573133 266.7597892857143 L 102.8917668879663 266.76636214285713 L 104.86503365020127 266.76827285714285 L 106.83830041243624 266.9695857142857 L 108.81156717467121 266.98319 L 110.78483393690617 266.9015642857143 L 112.75810069914114 266.97891 L 114.73136746137611 267.0454792857143 L 116.70463422361108 267.16486071428574 L 118.67790098584605 267.2162207142857 L 120.65116774808102 267.20223428571427 L 122.624434510316 267.2360157142857 L 124.59770127255096 267.2557342857143 L 126.57096803478593 267.2889042857143 L 128.5442347970209 267.3586071428571 L 130.51750155925586 267.3382771428571 L 132.49076832149083 267.33308 L 134.4640350837258 267.33995857142855 L 136.43730184596077 267.3791664285714 L 138.41056860819575 267.37129428571427 L 140.38383537043072 267.3466078571429 L 142.3571021326657 267.33835357142857 L 144.33036889490066 267.3294114285714 L 146.30363565713563 267.2908914285714 L 148.2769024193706 267.2654407142857 L 150.25016918160557 267.16952285714285 L 152.22343594384054 267.144225 L 154.1967027060755 267.16723 L 156.16996946831048 267.19398 L 158.14323623054545 267.189165 L 160.11650299278043 267.19741928571426 L 162.0897697550154 267.2604728571429 L 164.06303651725037 267.24946714285716 L 166.03630327948534 267.24213 L 168.0095700417203 267.23678 L 169.98283680395528 267.2194307142857 L 171.95610356619025 267.24809142857146 L 173.92937032842522 267.2429707142857 L 175.9026370906602 267.2387671428571 L 177.87590385289516 267.2368564285714 L 179.84917061513013 267.22501 L 181.8224373773651 267.23036 L 183.79570413960008 267.229825 L 185.76897090183505 267.2337228571429 L 187.74223766407002 267.22837285714286 L 189.715504426305 267.2260035714286 L 191.68877118853996 267.222335 L 193.6620379507749 267.2063614285714 L 195.63530471300987 267.177395 L 197.60857147524484 267.1523264285714 L 199.58183823747981 267.14881071428573 L 201.55510499971479 267.1438428571429 L 203.52837176194976 267.10287714285715 L 205.50163852418473 267.03332714285716 L 207.4749052864197 267.031875 L 209.44817204865467 266.95468214285717 L 211.42143881088964 266.8992714285714 L 213.3947055731246 266.8719864285714 L 215.36797233535958 266.9523892857143 L 217.34123909759455 266.93504 L 219.31450585982952 266.9179964285714 L 221.2877726220645 266.8843678571429 L 223.26103938429947 266.8443192857143 L 225.23430614653444 266.842485 L 227.2075729087694 266.82765785714287 L 229.18083967100438 266.86243285714284 L 231.15410643323935 266.86908214285717 L 233.12737319547432 266.9115 L 235.1006399577093 266.92548642857145 L 237.07390671994426 266.9186842857143 L 239.04717348217923 266.89392142857145 L 241.0204402444142 266.85073928571427 L 242.99370700664917 266.836065 L 244.96697376888415 266.78860285714285 L 246.94024053111912 266.77561000000003 L 248.9135072933541 266.78271785714287 L 250.88677405558906 266.78241214285714 L 252.86004081782403 266.7824885714286 L 254.833307580059 266.75298714285714 L 256.80657434229397 266.6914621428571 L 258.77984110452894 266.5709342857143 L 260.7531078667639 266.43703142857146 L 262.7263746289989 266.3181085714286 L 264.69964139123385 266.10617214285713 L 266.6729081534688 265.9278642857143 L 268.6461749157038 265.7495564285714 L 270.61944167793877 265.23366357142856 L 272.59270844017374 264.9921492857143 L 274.5659752024087 264.0470335714286 L 276.5392419646437 262.89196857142855 L 278.51250872687865 260.3436107142857 L 280.4857754891136 259.8005857142857 L 282.4590422513486 262.01907785714286 L 284.43230901358356 260.1160828571428 L 286.40557577581853 261.13472285714283 L 288.3788425380535 261.4162092857143 L 290.3521093002885 261.14863285714284 L 292.3253760625234 260.6703428571428 L 294.29864282475836 260.6180657142857 L 296.27190958699333 261.36783 L 298.2451763492283 261.9376814285714 L 300.2184431114633 261.73392285714283 L 302.19170987369824 262.16276357142857 L 304.1649766359332 263.42987285714287 L 306.1382433981682 262.9545635714286 L 308.11151016040316 262.7708292857143 L 310.0847769226381 262.74820642857145 L 312.0580436848731 262.34535142857146 L 314.03131044710807 262.40565357142856 L 316.00457720934304 262.2630378571429 L 317.977843971578 261.71810214285716 L 319.951110733813 261.03613 L 321.92437749604795 261.0187807142857 L 323.8976442582829 260.86707 L 325.8709110205179 260.8529307142857 L 327.84417778275287 260.8882407142857 L 329.81744454498784 261.1615492857143 L 331.7907113072228 260.76243928571427 L 333.7639780694578 259.67149785714287 L 335.73724483169275 257.7055257142857 L 337.7105115939277 256.9082992857143 L 339.6837783561627 252.41842642857142 L 341.65704511839766 246.0980892857143 L 343.63031188063263 231.11763071428572 L 345.6035786428676 215.09965428571428 L 347.5768454051026 216.90275714285715 L 349.55011216733755 219.40961428571427 L 351.5233789295725 233.36203214285715 L 353.4966456918075 229.16633285714283 L 355.46991245404246 223.78400357142857 L 357.44317921627743 220.33103714285716 L 359.4164459785124 221.77637785714285 L 361.38971274074737 221.40776285714287 L 363.36297950298234 222.50260214285714 L 365.3362462652173 226.56623285714286 L 367.3095130274523 233.04103214285715 L 369.28277978968725 235.46878571428573 L 371.2560465519222 237.67917642857145 L 373.2293133141572 232.95826 L 375.20258007639217 233.75349928571427 L 377.17584683862714 235.95945714285716 L 379.1491136008621 239.34929357142857 L 381.1223803630971 243.07174714285713 L 383.09564712533205 244.92766214285712 L 385.068913887567 240.9150092857143 L 387.042180649802 242.20130214285714 L 389.01544741203696 243.79881214285714 L 390.98871417427193 244.063255 L 392.9619809365069 243.82174071428574 L 394.9352476987419 240.29051142857145 L 396.90851446097685 235.704415 L 398.8817812232118 232.57772214285714 L 400.8550479854468 234.89595357142858 L 402.82831474768176 235.62187214285717 L 404.80158150991673 236.198755 L 406.7748482721517 233.48943857142856 L 408.7481150343867 234.12280214285715 L 410.72138179662164 234.2463107142857 L 412.6946485588566 235.08289785714285 L 414.6679153210916 236.31339785714286 L 416.64118208332656 236.10023857142858 L 418.6144488455615 239.19055142857144 L 420.5877156077965 240.78645642857143 L 422.56098237003147 240.59530857142857 L 424.5342491322664 241.85592142857143 L 426.50751589450135 242.10125714285715 L 428.4807826567363 244.51945714285716 L 430.4540494189713 245.78014642857144 L 432.42731618120627 248.270495 L 434.40058294344124 248.59768571428572 L 436.3738497056762 246.7497957142857 L 438.3471164679112 248.01430642857144 L 440.32038323014615 249.43266785714286 L 442.2936499923811 249.26184999999998 L 444.2669167546161 246.56789571428573 L 446.24018351685106 247.93971214285716 L 448.21345027908603 247.50040071428572 L 450.186717041321 247.40983285714287 L 452.159983803556 248.7481735714286 L 454.13325056579095 250.1742542857143 L 456.1065173280259 250.19397285714285 L 458.0797840902609 251.34300000000002 L 460.05305085249586 252.48224428571427 L 462.02631761473083 256.04656714285716 L 463.9995843769658 255.1295007142857 L 465.97285113920077 254.74078500000002 L 467.94611790143574 255.41908857142857 L 469.9193846636707 255.20126714285715 L 471.8926514259057 254.6846864285714 L 473.86591818814065 254.39272928571427 L 475.8391849503756 252.80920571428572 L 477.8124517126106 252.063645 L 479.78571847484557 253.14510928571428 L 481.75898523708054 254.155495 L 483.7322519993155 254.08174142857143 L 485.7055187615505 254.49246857142856 L 487.67878552378545 255.57622571428573 L 489.6520522860204 255.23283214285715 L 491.6253190482554 255.08899357142857 L 493.59858581049036 254.76203214285715 L 495.57185257272533 254.77831142857144 L 497.5451193349603 254.85030714285716 L 499.5183860971953 254.8903557142857 L 501.49165285943025 255.47633357142857 L 503.4649196216652 255.1663392857143 L 505.4381863839002 254.36139357142855 L 507.41145314613516 254.3938757142857 L 509.38471990837013 253.60566785714286 L 511.3579866706051 252.54476285714287 L 513.3312534328401 252.48797642857141 L 515.304520195075 252.41682142857144 L 517.27778695731 252.15153785714284 L 519.251053719545 252.76243142857143 L 521.22432048178 253.38417785714284 L 523.1975872440149 255.077835 L 525.1708540062499 255.50201357142856 L 527.1441207684849 255.1399714285714 L 529.1173875307198 254.76944571428572 L 531.0906542929548 255.14478642857142 L 533.0639210551898 255.09357928571427 L 535.0371878174248 254.77494857142858 L 537.0104545796597 254.42956785714284 L 538.9837213418947 253.74308642857142 L 540.9569881041297 252.8290007142857 L 542.9302548663646 250.97981142857142 L 544.9035216285996 246.94415357142856 L 546.8767883908346 249.47676714285714 L 548.8500551530695 249.90507285714284 L 550.8233219153045 249.0547285714286 L 552.7965886775395 247.61955285714285 L 554.7698554397745 244.79589928571428 L 556.7431222020094 243.124865 L 558.7163889642444 244.067 L 560.6896557264794 244.50661714285712 L 562.6629224887143 243.76931071428572 L 564.6361892509493 245.56752214285714 L 566.6094560131843 246.38416142857142 L 568.5827227754193 247.02960071428572 L 570.5559895376542 247.34051214285714 L 572.5292562998892 246.985425 L 574.5025230621242 245.03099357142858 L 576.4757898243591 244.55025785714287 L 578.4490565865941 245.17001714285715 L 580.4223233488291 245.36758500000002 L 582.395590111064 245.39318857142857 L 584.368856873299 245.19906 L 586.342123635534 245.16573714285715 L 588.315390397769 245.010205 L 590.2886571600039 244.66948642857142 L 592.2619239222389 243.66223428571428 L 594.2351906844739 243.16590714285712 L 596.2084574467088 243.27565857142855 L 598.1817242089438 243.1289157142857 L 600.1549909711788 243.64572571428573 L 602.1282577334138 242.16476928571427 L 604.1015244956487 238.02165285714284 L 606.0747912578837 235.4826192857143 L 608.0480580201187 228.34228000000002 L 610.0213247823536 232.47316785714287 L 611.9945915445886 231.9136342857143 L 613.9678583068236 232.10654 L 615.9411250690586 232.076045 L 617.9143918312935 231.9955657142857 L 619.8876585935284 232.68823785714284 L 621.8609253557634 236.47053499999998 L 623.8341921179983 236.1846157142857 L 625.8074588802333 236.75477285714285 L 627.7807256424683 236.62201642857144 L 629.7539924047032 236.36429928571428 L 631.7272591669382 234.58481285714288 L 633.7005259291732 235.04093857142857 L 635.6737926914082 235.39189857142856 L 637.6470594536431 234.99638071428572 L 639.6203262158781 234.70297142857143 L 641.5935929781131 233.54691285714284 L 643.566859740348 233.40292142857143 L 645.540126502583 231.12389785714288 L 647.513393264818 229.47258214285714 L 649.486660027053 229.5101085714286 L 651.4599267892879 228.33226785714282 L 653.4331935515229 228.04405571428572 L 655.4064603137579 227.28626642857142 L 657.3797270759928 226.59229499999998 L 659.3529938382278 225.74477857142858 L 661.3262606004628 221.74794642857142 L 663.2995273626977 216.23416 L 665.2727941249327 214.77261642857144 L 667.2460608871677 222.78829214285713 L 669.2193276494027 219.70202999999998 L 671.1925944116376 218.88814214285713 L 673.1658611738726 214.3913142857143 L 675.1391279361076 213.0596992857143 L 677.1123946983425 212.36702714285713 L 679.0856614605775 206.2047442857143 L 681.0589282228125 200.91344142857145 L 683.0321949850475 203.4241964285714 L 685.0054617472824 206.5054907142857 L 686.9787285095174 213.31489428571427 L 688.9519952717524 210.70822142857145 L 690.9252620339873 204.79135071428573 L 692.8985287962223 203.43703642857145 L 694.8717955584573 201.36337642857143 L 696.8450623206923 197.78995857142857 L 698.8183290829272 187.48417714285713 L 700.7915958451622 174.87017642857143 L 702.7648626073972 166.76316857142857 L 704.7381293696321 146.5465885714286 L 706.7113961318671 138.3710242857143 L 708.6846628941021 114.96767857142859 L 710.657929656337 128.84947642857142 L 712.631196418572 123.62145642857146 L 714.604463180807 132.10976642857145 L 716.577729943042 129.30674857142859 L 718.5509967052769 147.83823142857145 L 720.5242634675119 129.62530285714286 L 722.4975302297469 123.13025000000002 L 724.4707969919818 110.15038571428568 L 726.4440637542168 73.24600928571425 L 728.4173305164518 39.6999042857143 L 730.3905972786868 47.31522166666667" stroke="#333333" stroke-width="2"  stroke-linejoin="round" stroke-linecap="round"></path><path fill="none" d="M -9.718104748252147 267.49663714285714 L 0.28189525174785285 267.49663714285714 L 2.255162013982823 267.49663714285714 L 4.228428776217793 267.49679000000003 L 6.201695538452763 267.4963314285714 L 8.174962300687733 267.496255 L 10.148229062922702 267.49679000000003 L 12.121495825157673 267.49679000000003 L 14.094762587392642 267.49679000000003 L 16.06802934962761 267.49679000000003 L 18.041296111862582 267.49679000000003 L 20.014562874097553 267.49679000000003 L 21.987829636332524 267.4959492857143 L 23.961096398567495 267.4948028571429 L 25.934363160802462 267.4944207142857 L 27.907629923037433 267.4906757142857 L 29.880896685272404 267.4862428571429 L 31.854163447507375 267.48670142857145 L 33.827430209742346 267.48601357142854 L 35.80069697197732 267.48502 L 37.77396373421228 267.48807714285715 L 39.74723049644725 267.4883828571428 L 41.72049725868222 267.48708357142857 L 43.69376402091719 267.48647214285717 L 45.667030783152164 267.48440857142856 L 47.640297545387135 267.4835678571429 L 49.613564307622106 267.4810457142857 L 51.58683106985708 267.47967 L 53.56009783209204 267.4767657142857 L 55.53336459432701 267.45979857142856 L 57.50663135656198 267.44588857142855 L 59.47989811879695 267.4472642857143 L 61.453164881031924 267.4513914285714 L 63.426431643266895 267.451315 L 65.39969840550187 267.452385 L 67.37296516773684 267.4559007142857 L 69.34623192997181 267.4552892857143 L 71.31949869220678 267.45804071428574 L 73.29276545444175 267.4610214285714 L 75.26603221667672 267.44879285714285 L 77.23929897891169 267.427775 L 79.21256574114665 267.371065 L 81.18583250338162 267.31420214285714 L 83.15909926561659 267.16524285714286 L 85.13236602785156 267.13849285714286 L 87.10563279008653 267.06435714285715 L 89.0788995523215 266.83056214285716 L 91.05216631455647 266.2913585714286 L 93.02543307679144 266.5393692857143 L 94.99869983902641 266.57131642857144 L 96.97196660126139 266.6372742857143 L 98.94523336349636 266.7363257142857 L 100.91850012573133 266.7597892857143 L 102.8917668879663 266.76636214285713 L 104.86503365020127 266.76827285714285 L 106.83830041243624 266.9695857142857 L 108.81156717467121 266.98319 L 110.78483393690617 266.9015642857143 L 112.75810069914114 266.97891 L 114.73136746137611 267.0454792857143 L 116.70463422361108 267.16486071428574 L 118.67790098584605 267.2162207142857 L 120.65116774808102 267.20223428571427 L 122.624434510316 267.2360157142857 L 124.59770127255096 267.2557342857143 L 126.57096803478593 267.2889042857143 L 128.5442347970209 267.3586071428571 L 130.51750155925586 267.3382771428571 L 132.49076832149083 267.33308 L 134.4640350837258 267.33995857142855 L 136.43730184596077 267.3791664285714 L 138.41056860819575 267.37129428571427 L 140.38383537043072 267.3466078571429 L 142.3571021326657 267.33835357142857 L 144.33036889490066 267.3294114285714 L 146.30363565713563 267.2908914285714 L 148.2769024193706 267.2654407142857 L 150.25016918160557 267.16952285714285 L 152.22343594384054 267.144225 L 154.1967027060755 267.16723 L 156.16996946831048 267.19398 L 158.14323623054545 267.189165 L 160.11650299278043 267.19741928571426 L 162.0897697550154 267.2604728571429 L 164.06303651725037 267.24946714285716 L 166.03630327948534 267.24213 L 168.0095700417203 267.23678 L 169.98283680395528 267.2194307142857 L 171.95610356619025 267.24809142857146 L 173.92937032842522 267.2429707142857 L 175.9026370906602 267.2387671428571 L 177.87590385289516 267.2368564285714 L 179.84917061513013 267.22501 L 181.8224373773651 267.23036 L 183.79570413960008 267.229825 L 185.76897090183505 267.2337228571429 L 187.74223766407002 267.22837285714286 L 189.715504426305 267.2260035714286 L 191.68877118853996 267.222335 L 193.6620379507749 267.2063614285714 L 195.63530471300987 267.177395 L 197.60857147524484 267.1523264285714 L 199.58183823747981 267.14881071428573 L 201.55510499971479 267.1438428571429 L 203.52837176194976 267.10287714285715 L 205.50163852418473 267.03332714285716 L 207.4749052864197 267.031875 L 209.44817204865467 266.95468214285717 L 211.42143881088964 266.8992714285714 L 213.3947055731246 266.8719864285714 L 215.36797233535958 266.9523892857143 L 217.34123909759455 266.93504 L 219.31450585982952 266.9179964285714 L 221.2877726220645 266.8843678571429 L 223.26103938429947 266.8443192857143 L 225.23430614653444 266.842485 L 227.2075729087694 266.82765785714287 L 229.18083967100438 266.86243285714284 L 231.15410643323935 266.86908214285717 L 233.12737319547432 266.9115 L 235.1006399577093 266.92548642857145 L 237.07390671994426 266.9186842857143 L 239.04717348217923 266.89392142857145 L 241.0204402444142 266.85073928571427 L 242.99370700664917 266.836065 L 244.96697376888415 266.78860285714285 L 246.94024053111912 266.77561000000003 L 248.9135072933541 266.78271785714287 L 250.88677405558906 266.78241214285714 L 252.86004081782403 266.7824885714286 L 254.833307580059 266.75298714285714 L 256.80657434229397 266.6914621428571 L 258.77984110452894 266.5709342857143 L 260.7531078667639 266.43703142857146 L 262.7263746289989 266.3181085714286 L 264.69964139123385 266.10617214285713 L 266.6729081534688 265.9278642857143 L 268.6461749157038 265.7495564285714 L 270.61944167793877 265.23366357142856 L 272.59270844017374 264.9921492857143 L 274.5659752024087 264.0470335714286 L 276.5392419646437 262.89196857142855 L 278.51250872687865 260.3436107142857 L 280.4857754891136 259.8005857142857 L 282.4590422513486 262.01907785714286 L 284.43230901358356 260.1160828571428 L 286.40557577581853 261.13472285714283 L 288.3788425380535 261.4162092857143 L 290.3521093002885 261.14863285714284 L 292.3253760625234 260.6703428571428 L 294.29864282475836 260.6180657142857 L 296.27190958699333 261.36783 L 298.2451763492283 261.9376814285714 L 300.2184431114633 261.73392285714283 L 302.19170987369824 262.16276357142857 L 304.1649766359332 263.42987285714287 L 306.1382433981682 262.9545635714286 L 308.11151016040316 262.7708292857143 L 310.0847769226381 262.74820642857145 L 312.0580436848731 262.34535142857146 L 314.03131044710807 262.40565357142856 L 316.00457720934304 262.2630378571429 L 317.977843971578 261.71810214285716 L 319.951110733813 261.03613 L 321.92437749604795 261.0187807142857 L 323.8976442582829 260.86707 L 325.8709110205179 260.8529307142857 L 327.84417778275287 260.8882407142857 L 329.81744454498784 261.1615492857143 L 331.7907113072228 260.76243928571427 L 333.7639780694578 259.67149785714287 L 335.73724483169275 257.7055257142857 L 337.7105115939277 256.9082992857143 L 339.6837783561627 252.41842642857142 L 341.65704511839766 246.0980892857143 L 343.63031188063263 231.11763071428572 L 345.6035786428676 215.09965428571428 L 347.5768454051026 216.90275714285715 L 349.55011216733755 219.40961428571427 L 351.5233789295725 233.36203214285715 L 353.4966456918075 229.16633285714283 L 355.46991245404246 223.78400357142857 L 357.44317921627743 220.33103714285716 L 359.4164459785124 221.77637785714285 L 361.38971274074737 221.40776285714287 L 363.36297950298234 222.50260214285714 L 365.3362462652173 226.56623285714286 L 367.3095130274523 233.04103214285715 L 369.28277978968725 235.46878571428573 L 371.2560465519222 237.67917642857145 L 373.2293133141572 232.95826 L 375.20258007639217 233.75349928571427 L 377.17584683862714 235.95945714285716 L 379.1491136008621 239.34929357142857 L 381.1223803630971 243.07174714285713 L 383.09564712533205 244.92766214285712 L 385.068913887567 240.9150092857143 L 387.042180649802 242.20130214285714 L 389.01544741203696 243.79881214285714 L 390.98871417427193 244.063255 L 392.9619809365069 243.82174071428574 L 394.9352476987419 240.29051142857145 L 396.90851446097685 235.704415 L 398.8817812232118 232.57772214285714 L 400.8550479854468 234.89595357142858 L 402.82831474768176 235.62187214285717 L 404.80158150991673 236.198755 L 406.7748482721517 233.48943857142856 L 408.7481150343867 234.12280214285715 L 410.72138179662164 234.2463107142857 L 412.6946485588566 235.08289785714285 L 414.6679153210916 236.31339785714286 L 416.64118208332656 236.10023857142858 L 418.6144488455615 239.19055142857144 L 420.5877156077965 240.78645642857143 L 422.56098237003147 240.59530857142857 L 424.5342491322664 241.85592142857143 L 426.50751589450135 242.10125714285715 L 428.4807826567363 244.51945714285716 L 430.4540494189713 245.78014642857144 L 432.42731618120627 248.270495 L 434.40058294344124 248.59768571428572 L 436.3738497056762 246.7497957142857 L 438.3471164679112 248.01430642857144 L 440.32038323014615 249.43266785714286 L 442.2936499923811 249.26184999999998 L 444.2669167546161 246.56789571428573 L 446.24018351685106 247.93971214285716 L 448.21345027908603 247.50040071428572 L 450.186717041321 247.40983285714287 L 452.159983803556 248.7481735714286 L 454.13325056579095 250.1742542857143 L 456.1065173280259 250.19397285714285 L 458.0797840902609 251.34300000000002 L 460.05305085249586 252.48224428571427 L 462.02631761473083 256.04656714285716 L 463.9995843769658 255.1295007142857 L 465.97285113920077 254.74078500000002 L 467.94611790143574 255.41908857142857 L 469.9193846636707 255.20126714285715 L 471.8926514259057 254.6846864285714 L 473.86591818814065 254.39272928571427 L 475.8391849503756 252.80920571428572 L 477.8124517126106 252.063645 L 479.78571847484557 253.14510928571428 L 481.75898523708054 254.155495 L 483.7322519993155 254.08174142857143 L 485.7055187615505 254.49246857142856 L 487.67878552378545 255.57622571428573 L 489.6520522860204 255.23283214285715 L 491.6253190482554 255.08899357142857 L 493.59858581049036 254.76203214285715 L 495.57185257272533 254.77831142857144 L 497.5451193349603 254.85030714285716 L 499.5183860971953 254.8903557142857 L 501.49165285943025 255.47633357142857 L 503.4649196216652 255.1663392857143 L 505.4381863839002 254.36139357142855 L 507.41145314613516 254.3938757142857 L 509.38471990837013 253.60566785714286 L 511.3579866706051 252.54476285714287 L 513.3312534328401 252.48797642857141 L 515.304520195075 252.41682142857144 L 517.27778695731 252.15153785714284 L 519.251053719545 252.76243142857143 L 521.22432048178 253.38417785714284 L 523.1975872440149 255.077835 L 525.1708540062499 255.50201357142856 L 527.1441207684849 255.1399714285714 L 529.1173875307198 254.76944571428572 L 531.0906542929548 255.14478642857142 L 533.0639210551898 255.09357928571427 L 535.0371878174248 254.77494857142858 L 537.0104545796597 254.42956785714284 L 538.9837213418947 253.74308642857142 L 540.9569881041297 252.8290007142857 L 542.9302548663646 250.97981142857142 L 544.9035216285996 246.94415357142856 L 546.8767883908346 249.47676714285714 L 548.8500551530695 249.90507285714284 L 550.8233219153045 249.0547285714286 L 552.7965886775395 247.61955285714285 L 554.7698554397745 244.79589928571428 L 556.7431222020094 243.124865 L 558.7163889642444 244.067 L 560.6896557264794 244.50661714285712 L 562.6629224887143 243.76931071428572 L 564.6361892509493 245.56752214285714 L 566.6094560131843 246.38416142857142 L 568.5827227754193 247.02960071428572 L 570.5559895376542 247.34051214285714 L 572.5292562998892 246.985425 L 574.5025230621242 245.03099357142858 L 576.4757898243591 244.55025785714287 L 578.4490565865941 245.17001714285715 L 580.4223233488291 245.36758500000002 L 582.395590111064 245.39318857142857 L 584.368856873299 245.19906 L 586.342123635534 245.16573714285715 L 588.315390397769 245.010205 L 590.2886571600039 244.66948642857142 L 592.2619239222389 243.66223428571428 L 594.2351906844739 243.16590714285712 L 596.2084574467088 243.27565857142855 L 598.1817242089438 243.1289157142857 L 600.1549909711788 243.64572571428573 L 602.1282577334138 242.16476928571427 L 604.1015244956487 238.02165285714284 L 606.0747912578837 235.4826192857143 L 608.0480580201187 228.34228000000002 L 610.0213247823536 232.47316785714287 L 611.9945915445886 231.9136342857143 L 613.9678583068236 232.10654 L 615.9411250690586 232.076045 L 617.9143918312935 231.9955657142857 L 619.8876585935284 232.68823785714284 L 621.8609253557634 236.47053499999998 L 623.8341921179983 236.1846157142857 L 625.8074588802333 236.75477285714285 L 627.7807256424683 236.62201642857144 L 629.7539924047032 236.36429928571428 L 631.7272591669382 234.58481285714288 L 633.7005259291732 235.04093857142857 L 635.6737926914082 235.39189857142856 L 637.6470594536431 234.99638071428572 L 639.6203262158781 234.70297142857143 L 641.5935929781131 233.54691285714284 L 643.566859740348 233.40292142857143 L 645.540126502583 231.12389785714288 L 647.513393264818 229.47258214285714 L 649.486660027053 229.5101085714286 L 651.4599267892879 228.33226785714282 L 653.4331935515229 228.04405571428572 L 655.4064603137579 227.28626642857142 L 657.3797270759928 226.59229499999998 L 659.3529938382278 225.74477857142858 L 661.3262606004628 221.74794642857142 L 663.2995273626977 216.23416 L 665.2727941249327 214.77261642857144 L 667.2460608871677 222.78829214285713 L 669.2193276494027 219.70202999999998 L 671.1925944116376 218.88814214285713 L 673.1658611738726 214.3913142857143 L 675.1391279361076 213.0596992857143 L 677.1123946983425 212.36702714285713 L 679.0856614605775 206.2047442857143 L 681.0589282228125 200.91344142857145 L 683.0321949850475 203.4241964285714 L 685.0054617472824 206.5054907142857 L 686.9787285095174 213.31489428571427 L 688.9519952717524 210.70822142857145 L 690.9252620339873 204.79135071428573 L 692.8985287962223 203.43703642857145 L 694.8717955584573 201.36337642857143 L 696.8450623206923 197.78995857142857 L 698.8183290829272 187.48417714285713 L 700.7915958451622 174.87017642857143 L 702.7648626073972 166.76316857142857 L 704.7381293696321 146.5465885714286 L 706.7113961318671 138.3710242857143 L 708.6846628941021 114.96767857142859 L 710.657929656337 128.84947642857142 L 712.631196418572 123.62145642857146 L 714.604463180807 132.10976642857145 L 716.577729943042 129.30674857142859 L 718.5509967052769 147.83823142857145 L 720.5242634675119 129.62530285714286 L 722.4975302297469 123.13025000000002 L 724.4707969919818 110.15038571428568 L 726.4440637542168 73.24600928571425 L 728.4173305164518 39.6999042857143 L 730.3905972786868 47.31522166666667 L 740.3905972786868 47.31522166666667" stroke-linejoin="round" visibility="visible" stroke="rgba(192,192,192,0.0001)" stroke-width="22"  class=" highcharts-tracker" style=""></path></g><g class="highcharts-markers highcharts-tracker" visibility="visible"  transform="translate(59,45) scale(1 1)" style="" clip-path="none"></g><g class="highcharts-series" visibility="visible"  transform="translate(59,45) scale(1 1)" clip-path="url(#highcharts-12)"></g><g class="highcharts-markers highcharts-tracker" visibility="visible"  transform="translate(59,45) scale(1 1)" style="" clip-path="none"><g style="text-align:center;" transform="translate(246,292)"><path fill="white" d="M -1 0 L 116 0 116 17 -1 17 Z M 59.164976635933215 17 L 59.164976635933215 29" stroke="#333" stroke-width="1"></path><text x="1.5"  style="font-size:11px;font-weight:bold;" y="15"><tspan>CoinDesk BPI in effect</tspan></text></g></g><g class="highcharts-series" visibility="visible"  transform="translate(59,45) scale(1 1)" clip-path="url(#highcharts-12)"></g><g class="highcharts-markers highcharts-tracker" visibility="visible"  transform="translate(59,45) scale(1 1)" style="" clip-path="none"><g style="text-align:center;" transform="translate(246,292)"><path fill="white" d="M -1 0 L 116 0 116 17 -1 17 Z M 59.164976635933215 17 L 59.164976635933215 29" stroke="#333" stroke-width="1"></path><text x="1.5"  style="font-size:11px;font-weight:bold;" y="15"><tspan>CoinDesk BPI in effect</tspan></text></g></g><g class="highcharts-series" visibility="visible"  transform="translate(59,45) scale(1 1)" clip-path="url(#highcharts-12)"></g><g class="highcharts-markers highcharts-tracker" visibility="visible"  transform="translate(59,45) scale(1 1)" style="" clip-path="none"><g style="text-align:center;" transform="translate(246,292)"><path fill="white" d="M -1 0 L 116 0 116 17 -1 17 Z M 59.164976635933215 17 L 59.164976635933215 29" stroke="#333" stroke-width="1"></path><text x="1.5"  style="font-size:11px;font-weight:bold;" y="15"><tspan>CoinDesk BPI in effect</tspan></text></g></g><g class="highcharts-series" visibility="visible"  transform="translate(59,45) scale(1 1)" clip-path="url(#highcharts-12)"></g><g class="highcharts-markers highcharts-tracker" visibility="visible"  transform="translate(59,45) scale(1 1)" style="" clip-path="none"><g style="text-align:center;" transform="translate(246,292)"><path fill="white" d="M -1 0 L 116 0 116 17 -1 17 Z M 59.164976635933215 17 L 59.164976635933215 29" stroke="#333" stroke-width="1"></path><text x="1.5"  style="font-size:11px;font-weight:bold;" y="15"><tspan>CoinDesk BPI in effect</tspan></text></g></g><g class="highcharts-series" visibility="visible"  transform="translate(59,45) scale(1 1)" clip-path="url(#highcharts-12)"></g><g class="highcharts-markers highcharts-tracker" visibility="visible"  transform="translate(59,45) scale(1 1)" style="" clip-path="none"><g style="text-align:center;" transform="translate(246,292)"><path fill="white" d="M -1 0 L 116 0 116 17 -1 17 Z M 59.164976635933215 17 L 59.164976635933215 29" stroke="#333" stroke-width="1"></path><text x="1.5"  style="font-size:11px;font-weight:bold;" y="15"><tspan>CoinDesk BPI in effect</tspan></text></g></g><g class="highcharts-series" visibility="visible"  transform="translate(59,45) scale(1 1)" clip-path="url(#highcharts-12)"></g><g class="highcharts-markers highcharts-tracker" visibility="visible"  transform="translate(59,45) scale(1 1)" style="" clip-path="none"><g style="text-align:center;" transform="translate(246,292)"><path fill="white" d="M -1 0 L 116 0 116 17 -1 17 Z M 59.164976635933215 17 L 59.164976635933215 29" stroke="#333" stroke-width="1"></path><text x="1.5"  style="font-size:11px;font-weight:bold;" y="15"><tspan>CoinDesk BPI in effect</tspan></text></g></g></g><g class="highcharts-axis-labels highcharts-xaxis-labels" ><text x="208.96827392985773" text-anchor="middle" style="color:#8a8a8a;cursor:default;font-size:11px;fill:#8a8a8a;" y="386" opacity="1">2012</text><text x="415.03370295753814" text-anchor="middle" style="color:#8a8a8a;cursor:default;font-size:11px;fill:#8a8a8a;" y="386" opacity="1">2014</text><text x="620.8172367334707" text-anchor="middle" style="color:#8a8a8a;cursor:default;font-size:11px;fill:#8a8a8a;" y="386" opacity="1">2016</text></g><g class="highcharts-axis-labels highcharts-yaxis-labels" ><text x="0" text-anchor="end" style="width:244px;color:#8a8a8a;cursor:default;font-size:11px;fill:#8a8a8a;" y="-9999">$-1000</text><text x="44" text-anchor="end" style="width:244px;color:#8a8a8a;cursor:default;font-size:11px;fill:#8a8a8a;" y="310.5" opacity="1">$0</text><text x="44" text-anchor="end" style="width:244px;color:#8a8a8a;cursor:default;font-size:11px;fill:#8a8a8a;" y="257" opacity="1">$1000</text><text x="44" text-anchor="end" style="width:244px;color:#8a8a8a;cursor:default;font-size:11px;fill:#8a8a8a;" y="203.5" opacity="1">$2000</text><text x="44" text-anchor="end" style="width:244px;color:#8a8a8a;cursor:default;font-size:11px;fill:#8a8a8a;" y="150" opacity="1">$3000</text><text x="44" text-anchor="end" style="width:244px;color:#8a8a8a;cursor:default;font-size:11px;fill:#8a8a8a;" y="96.5" opacity="1">$4000</text><text x="0" text-anchor="end" style="width:244px;color:#8a8a8a;cursor:default;font-size:11px;fill:#8a8a8a;" y="-9999">$5000</text></g><g class="highcharts-button"  states="[object Object]" style="cursor:pointer;text-align:center;" transform="translate(64,10)"><rect x="0" y="0" width="34" height="22" strokeWidth="0" fill="#e6e6e6" rx="0" ry="0"></rect><text x="11.65625"  style="font-size:12px;font-weight:normal;color:#555;fill:#555;" y="15">1h</text></g><g class="highcharts-button"  states="[object Object]" style="cursor:pointer;text-align:center;" transform="translate(100,10)"><rect x="0" y="0" width="34" height="22" strokeWidth="0" fill="#e6e6e6" rx="0" ry="0"></rect><text x="8.1328125"  style="font-size:12px;font-weight:normal;color:#555;fill:#555;" y="15">12h</text></g><g class="highcharts-button"  states="[object Object]" style="cursor:pointer;text-align:center;" transform="translate(136,10)"><rect x="0" y="0" width="34" height="22" strokeWidth="0" fill="#e6e6e6" rx="0" ry="0"></rect><text x="11.5234375"  style="font-size:12px;font-weight:normal;color:#555;fill:#555;" y="15">1d</text></g><g class="highcharts-button"  states="[object Object]" style="cursor:pointer;text-align:center;" transform="translate(172,10)"><rect x="0" y="0" width="34" height="22" strokeWidth="0" fill="#e6e6e6" rx="0" ry="0"></rect><text x="10.5625"  style="font-size:12px;font-weight:normal;color:#555;fill:#555;" y="15">1w</text></g><g class="highcharts-button"  states="[object Object]" style="cursor:pointer;text-align:center;" transform="translate(208,10)"><rect x="0" y="0" width="34" height="22" strokeWidth="0" fill="#e6e6e6" rx="0" ry="0"></rect><text x="10.125"  style="font-size:12px;font-weight:normal;color:#555;fill:#555;" y="15">1m</text></g><g class="highcharts-button"  states="[object Object]" style="cursor:pointer;text-align:center;" transform="translate(244,10)"><rect x="0" y="0" width="34" height="22" strokeWidth="0" fill="#e6e6e6" rx="0" ry="0"></rect><text x="8.8125"  style="font-size:12px;font-weight:normal;color:#555;fill:#555;" y="15">3m</text></g><g class="highcharts-button"  states="[object Object]" style="cursor:pointer;text-align:center;" transform="translate(280,10)"><rect x="0" y="0" width="34" height="22" strokeWidth="0" fill="#e6e6e6" rx="0" ry="0"></rect><text x="12.03125"  style="font-size:12px;font-weight:normal;color:#555;fill:#555;" y="15">1y</text></g><g class="highcharts-button"  states="[object Object]" style="cursor:pointer;text-align:center;" transform="translate(316,10)"><rect x="0" y="0" width="34" height="22" strokeWidth="0" fill="#e6e6e6" rx="0" ry="0"></rect><text x="10.359375"  style="font-size:12px;font-weight:normal;color:#555;fill:#555;" y="15">All</text></g><g class="highcharts-tooltip"  style="cursor:default;padding:0;white-space:nowrap;" transform="translate(0,-9999)"><path fill="#e6e6e6" d="M 3 0 L 13 0 C 16 0 16 0 16 3 L 16 13 C 16 16 16 16 13 16 L 3 16 C 0 16 0 16 0 13 L 0 3 C 0 0 0 0 3 0"></path><text x="8"  style="font-size:12px;color:#333333;fill:#333333;" y="21"></text></g></svg>